<svg width="1227pt" height="1013pt"
 viewBox="0.00 0.00 1227.00 1013.00" xmlns="http://www.w3.org/2000/svg" xmlns:xlink="http://www.w3.org/1999/xlink">
<g id="graph0" class="graph" transform="scale(1 1) rotate(0) translate(25.2 987.32)">
<title>G</title>
<polygon fill="white" stroke="none" points="-25.2,25.2 -25.2,-987.32 1201.71,-987.32 1201.71,25.2 -25.2,25.2"/>
<text xml:space="preserve" text-anchor="middle" x="588.26" y="-937.42" font-family="Arial" font-size="23.00">單一候選評估流程</text>
<!-- n_Candidate -->
<g id="node1" class="node">
<title>n_Candidate</title>
<path fill="#f8fbff" stroke="#63809a" stroke-width="1.15" d="M449.74,-926.52C449.74,-926.52 281.51,-926.52 281.51,-926.52 275.51,-926.52 269.51,-920.52 269.51,-914.52 269.51,-914.52 269.51,-870.84 269.51,-870.84 269.51,-864.84 275.51,-858.84 281.51,-858.84 281.51,-858.84 449.74,-858.84 449.74,-858.84 455.74,-858.84 461.74,-864.84 461.74,-870.84 461.74,-870.84 461.74,-914.52 461.74,-914.52 461.74,-920.52 455.74,-926.52 449.74,-926.52"/>
<text xml:space="preserve" text-anchor="middle" x="365.62" y="-905.28" font-family="Arial" font-size="14.00" fill="#17324d">完整 DesignState</text>
<text xml:space="preserve" text-anchor="middle" x="365.62" y="-888.48" font-family="Arial" font-size="14.00" fill="#17324d">block groups + chiplet 數 +</text>
<text xml:space="preserve" text-anchor="middle" x="365.62" y="-871.68" font-family="Arial" font-size="14.00" fill="#17324d">mapping</text>
</g>
<!-- n_Work -->
<g id="node2" class="node">
<title>n_Work</title>
<path fill="#f8fbff" stroke="#63809a" stroke-width="1.15" d="M446.88,-803.44C446.88,-803.44 290.37,-803.44 290.37,-803.44 284.37,-803.44 278.37,-797.44 278.37,-791.44 278.37,-791.44 278.37,-764.56 278.37,-764.56 278.37,-758.56 284.37,-752.56 290.37,-752.56 290.37,-752.56 446.88,-752.56 446.88,-752.56 452.88,-752.56 458.88,-758.56 458.88,-764.56 458.88,-764.56 458.88,-791.44 458.88,-791.44 458.88,-797.44 452.88,-803.44 446.88,-803.44"/>
<text xml:space="preserve" text-anchor="middle" x="368.62" y="-782.2" font-family="Arial" font-size="14.00" fill="#17324d">workload.py</text>
<text xml:space="preserve" text-anchor="middle" x="368.62" y="-765.4" font-family="Arial" font-size="14.00" fill="#17324d">工作分配與 tensor 通訊事件</text>
</g>
<!-- n_Candidate&#45;&gt;n_Work -->
<g id="edge1" class="edge">
<title>n_Candidate&#45;&gt;n_Work</title>
<path fill="none" stroke="#69859c" stroke-width="1.05" d="M366.51,-858.48C366.89,-843.97 367.35,-826.97 367.73,-812.43"/>
<polygon fill="#69859c" stroke="#69859c" stroke-width="1.05" points="370.25,-812.59 367.92,-805.33 365.21,-812.46 370.25,-812.59"/>
</g>
<!-- n_Topo -->
<g id="node7" class="node">
<title>n_Topo</title>
<path fill="#f8fbff" stroke="#63809a" stroke-width="1.15" d="M711.82,-697.16C711.82,-697.16 509.43,-697.16 509.43,-697.16 503.43,-697.16 497.43,-691.16 497.43,-685.16 497.43,-685.16 497.43,-641.48 497.43,-641.48 497.43,-635.48 503.43,-629.48 509.43,-629.48 509.43,-629.48 711.82,-629.48 711.82,-629.48 717.82,-629.48 723.82,-635.48 723.82,-641.48 723.82,-641.48 723.82,-685.16 723.82,-685.16 723.82,-691.16 717.82,-697.16 711.82,-697.16"/>
<text xml:space="preserve" text-anchor="middle" x="610.62" y="-675.92" font-family="Arial" font-size="14.00" fill="#17324d">topology.py</text>
<text xml:space="preserve" text-anchor="middle" x="610.62" y="-659.12" font-family="Arial" font-size="14.00" fill="#17324d">固定 row&#45;major mesh、座標與實體</text>
<text xml:space="preserve" text-anchor="middle" x="610.62" y="-642.32" font-family="Arial" font-size="14.00" fill="#17324d">links</text>
</g>
<!-- n_Candidate&#45;&gt;n_Topo -->
<g id="edge7" class="edge">
<title>n_Candidate&#45;&gt;n_Topo</title>
<path fill="none" stroke="#69859c" stroke-width="1.05" d="M411.64,-858.27C429.86,-844.47 450.7,-827.94 468.62,-811.84 507.01,-777.35 547.53,-734.54 575.41,-703.93"/>
<polygon fill="#69859c" stroke="#69859c" stroke-width="1.05" points="577.12,-705.8 580.1,-698.77 573.39,-702.41 577.12,-705.8"/>
</g>
<!-- n_Events -->
<g id="node4" class="node">
<title>n_Events</title>
<path fill="#f8fbff" stroke="#63809a" stroke-width="1.15" d="M465.79,-697.16C465.79,-697.16 273.46,-697.16 273.46,-697.16 267.46,-697.16 261.46,-691.16 261.46,-685.16 261.46,-685.16 261.46,-641.48 261.46,-641.48 261.46,-635.48 267.46,-629.48 273.46,-629.48 273.46,-629.48 465.79,-629.48 465.79,-629.48 471.79,-629.48 477.79,-635.48 477.79,-641.48 477.79,-641.48 477.79,-685.16 477.79,-685.16 477.79,-691.16 471.79,-697.16 465.79,-697.16"/>
<text xml:space="preserve" text-anchor="middle" x="369.62" y="-675.92" font-family="Arial" font-size="14.00" fill="#17324d">communication.py</text>
<text xml:space="preserve" text-anchor="middle" x="369.62" y="-659.12" font-family="Arial" font-size="14.00" fill="#17324d">ownership、unicast、IC partial</text>
<text xml:space="preserve" text-anchor="middle" x="369.62" y="-642.32" font-family="Arial" font-size="14.00" fill="#17324d">sum 與歸約</text>
</g>
<!-- n_Work&#45;&gt;n_Events -->
<g id="edge3" class="edge">
<title>n_Work&#45;&gt;n_Events</title>
<path fill="none" stroke="#69859c" stroke-width="1.05" d="M368.85,-751.99C368.97,-738.43 369.12,-721.3 369.26,-705.8"/>
<polygon fill="#69859c" stroke="#69859c" stroke-width="1.05" points="371.77,-706.2 369.32,-698.97 366.73,-706.15 371.77,-706.2"/>
</g>
<!-- n_Mapping -->
<g id="node5" class="node">
<title>n_Mapping</title>
<path fill="#f8fbff" stroke="#63809a" stroke-width="1.15" d="M229.25,-697.16C229.25,-697.16 12,-697.16 12,-697.16 6,-697.16 0,-691.16 0,-685.16 0,-685.16 0,-641.48 0,-641.48 0,-635.48 6,-629.48 12,-629.48 12,-629.48 229.25,-629.48 229.25,-629.48 235.25,-629.48 241.25,-635.48 241.25,-641.48 241.25,-641.48 241.25,-685.16 241.25,-685.16 241.25,-691.16 235.25,-697.16 229.25,-697.16"/>
<text xml:space="preserve" text-anchor="middle" x="120.62" y="-675.92" font-family="Arial" font-size="14.00" fill="#17324d">mapping.py</text>
<text xml:space="preserve" text-anchor="middle" x="120.62" y="-659.12" font-family="Arial" font-size="14.00" fill="#17324d">mapping plan、SRAM、channel 與</text>
<text xml:space="preserve" text-anchor="middle" x="120.62" y="-642.32" font-family="Arial" font-size="14.00" fill="#17324d">效率</text>
</g>
<!-- n_Work&#45;&gt;n_Mapping -->
<g id="edge4" class="edge">
<title>n_Work&#45;&gt;n_Mapping</title>
<path fill="none" stroke="#69859c" stroke-width="1.05" d="M302.65,-752.04C279.36,-742.82 253.13,-731.98 229.62,-721.16 216.58,-715.16 202.86,-708.38 189.72,-701.65"/>
<polygon fill="#69859c" stroke="#69859c" stroke-width="1.05" points="191.03,-699.49 183.48,-698.43 188.72,-703.97 191.03,-699.49"/>
</g>
<!-- n_Model -->
<g id="node3" class="node">
<title>n_Model</title>
<path fill="#f8fbff" stroke="#63809a" stroke-width="1.15" d="M655.22,-918.12C655.22,-918.12 494.02,-918.12 494.02,-918.12 488.02,-918.12 482.02,-912.12 482.02,-906.12 482.02,-906.12 482.02,-879.24 482.02,-879.24 482.02,-873.24 488.02,-867.24 494.02,-867.24 494.02,-867.24 655.22,-867.24 655.22,-867.24 661.22,-867.24 667.22,-873.24 667.22,-879.24 667.22,-879.24 667.22,-906.12 667.22,-906.12 667.22,-912.12 661.22,-918.12 655.22,-918.12"/>
<text xml:space="preserve" text-anchor="middle" x="574.62" y="-896.88" font-family="Arial" font-size="14.00" fill="#17324d">configs/models.json</text>
<text xml:space="preserve" text-anchor="middle" x="574.62" y="-880.08" font-family="Arial" font-size="14.00" fill="#17324d">ModelSpec 與 block DAG</text>
</g>
<!-- n_Model&#45;&gt;n_Work -->
<g id="edge2" class="edge">
<title>n_Model&#45;&gt;n_Work</title>
<path fill="none" stroke="#69859c" stroke-width="1.05" d="M528.91,-866.67C497.17,-849.31 454.79,-826.13 421.58,-807.97"/>
<polygon fill="#69859c" stroke="#69859c" stroke-width="1.05" points="423.13,-805.94 415.61,-804.7 420.72,-810.37 423.13,-805.94"/>
</g>
<!-- n_Schedule -->
<g id="node8" class="node">
<title>n_Schedule</title>
<path fill="#f8fbff" stroke="#63809a" stroke-width="1.15" d="M468.16,-582.48C468.16,-582.48 275.09,-582.48 275.09,-582.48 269.09,-582.48 263.09,-576.48 263.09,-570.48 263.09,-570.48 263.09,-526.8 263.09,-526.8 263.09,-520.8 269.09,-514.8 275.09,-514.8 275.09,-514.8 468.16,-514.8 468.16,-514.8 474.16,-514.8 480.16,-520.8 480.16,-526.8 480.16,-526.8 480.16,-570.48 480.16,-570.48 480.16,-576.48 474.16,-582.48 468.16,-582.48"/>
<text xml:space="preserve" text-anchor="middle" x="371.62" y="-561.24" font-family="Arial" font-size="14.00" fill="#17324d">dag_scheduler.py</text>
<text xml:space="preserve" text-anchor="middle" x="371.62" y="-544.44" font-family="Arial" font-size="14.00" fill="#17324d">依賴與 chiplet 資源排程、架構可行</text>
<text xml:space="preserve" text-anchor="middle" x="371.62" y="-527.64" font-family="Arial" font-size="14.00" fill="#17324d">性</text>
</g>
<!-- n_Events&#45;&gt;n_Schedule -->
<g id="edge8" class="edge">
<title>n_Events&#45;&gt;n_Schedule</title>
<path fill="none" stroke="#69859c" stroke-width="1.05" d="M370.21,-629.12C370.42,-617.42 370.66,-604.11 370.88,-591.77"/>
<polygon fill="#69859c" stroke="#69859c" stroke-width="1.05" points="373.4,-591.82 371,-584.58 368.36,-591.73 373.4,-591.82"/>
</g>
<!-- n_E2E -->
<g id="node9" class="node">
<title>n_E2E</title>
<path fill="#f8fbff" stroke="#63809a" stroke-width="1.15" d="M704.41,-582.48C704.41,-582.48 512.83,-582.48 512.83,-582.48 506.83,-582.48 500.83,-576.48 500.83,-570.48 500.83,-570.48 500.83,-526.8 500.83,-526.8 500.83,-520.8 506.83,-514.8 512.83,-514.8 512.83,-514.8 704.41,-514.8 704.41,-514.8 710.41,-514.8 716.41,-520.8 716.41,-526.8 716.41,-526.8 716.41,-570.48 716.41,-570.48 716.41,-576.48 710.41,-582.48 704.41,-582.48"/>
<text xml:space="preserve" text-anchor="middle" x="608.62" y="-561.24" font-family="Arial" font-size="14.00" fill="#17324d">e2e_latency.py</text>
<text xml:space="preserve" text-anchor="middle" x="608.62" y="-544.44" font-family="Arial" font-size="14.00" fill="#17324d">compute + serialization + path</text>
<text xml:space="preserve" text-anchor="middle" x="608.62" y="-527.64" font-family="Arial" font-size="14.00" fill="#17324d">latency</text>
</g>
<!-- n_Events&#45;&gt;n_E2E -->
<g id="edge11" class="edge">
<title>n_Events&#45;&gt;n_E2E</title>
<path fill="none" stroke="#69859c" stroke-width="1.05" d="M470.34,-628.99C487.73,-622.2 505.42,-614.62 521.62,-606.48 532.63,-600.95 543.95,-594.33 554.63,-587.6"/>
<polygon fill="#69859c" stroke="#69859c" stroke-width="1.05" points="555.88,-589.79 560.58,-583.78 553.16,-585.55 555.88,-589.79"/>
</g>
<!-- n_RC -->
<g id="node10" class="node">
<title>n_RC</title>
<path fill="#f8fbff" stroke="#63809a" stroke-width="1.15" d="M893.07,-574.08C893.07,-574.08 748.17,-574.08 748.17,-574.08 742.17,-574.08 736.17,-568.08 736.17,-562.08 736.17,-562.08 736.17,-535.2 736.17,-535.2 736.17,-529.2 742.17,-523.2 748.17,-523.2 748.17,-523.2 893.07,-523.2 893.07,-523.2 899.07,-523.2 905.07,-529.2 905.07,-535.2 905.07,-535.2 905.07,-562.08 905.07,-562.08 905.07,-568.08 899.07,-574.08 893.07,-574.08"/>
<text xml:space="preserve" text-anchor="middle" x="820.62" y="-552.84" font-family="Arial" font-size="14.00" fill="#17324d">rapidchiplet_engine.py</text>
<text xml:space="preserve" text-anchor="middle" x="820.62" y="-536.04" font-family="Arial" font-size="14.00" fill="#17324d">官方輸入與 link routing</text>
</g>
<!-- n_Events&#45;&gt;n_RC -->
<g id="edge16" class="edge">
<title>n_Events&#45;&gt;n_RC</title>
<path fill="none" stroke="#69859c" stroke-width="1.05" d="M478.2,-631.76C481.37,-630.98 484.52,-630.22 487.62,-629.48 592.96,-604.5 622.15,-610.85 726.62,-582.48 732.47,-580.89 738.48,-579.12 744.5,-577.25"/>
<polygon fill="#69859c" stroke="#69859c" stroke-width="1.05" points="745.08,-579.71 751.18,-575.13 743.56,-574.91 745.08,-579.71"/>
</g>
<!-- n_Mapping&#45;&gt;n_Schedule -->
<g id="edge9" class="edge">
<title>n_Mapping&#45;&gt;n_Schedule</title>
<path fill="none" stroke="#69859c" stroke-width="1.05" d="M194.91,-628.97C224.76,-615.57 259.28,-600.07 289.84,-586.35"/>
<polygon fill="#69859c" stroke="#69859c" stroke-width="1.05" points="290.54,-588.8 296.07,-583.56 288.47,-584.21 290.54,-588.8"/>
</g>
<!-- n_Mapping&#45;&gt;n_E2E -->
<g id="edge12" class="edge">
<title>n_Mapping&#45;&gt;n_E2E</title>
<path fill="none" stroke="#69859c" stroke-width="1.05" d="M241.55,-631.76C244.94,-630.98 248.31,-630.22 251.62,-629.48 357.27,-605.87 385.29,-607.46 490.62,-582.48 491.02,-582.38 491.43,-582.29 491.83,-582.19"/>
<polygon fill="#69859c" stroke="#69859c" stroke-width="1.05" points="492.41,-584.64 498.82,-580.5 491.22,-579.75 492.41,-584.64"/>
</g>
<!-- n_Eval -->
<g id="node14" class="node">
<title>n_Eval</title>
<path fill="#f8fbff" stroke="#63809a" stroke-width="1.15" d="M828.03,-344.52C828.03,-344.52 637.22,-344.52 637.22,-344.52 631.22,-344.52 625.22,-338.52 625.22,-332.52 625.22,-332.52 625.22,-305.64 625.22,-305.64 625.22,-299.64 631.22,-293.64 637.22,-293.64 637.22,-293.64 828.03,-293.64 828.03,-293.64 834.03,-293.64 840.03,-299.64 840.03,-305.64 840.03,-305.64 840.03,-332.52 840.03,-332.52 840.03,-338.52 834.03,-344.52 828.03,-344.52"/>
<text xml:space="preserve" text-anchor="middle" x="732.62" y="-323.28" font-family="Arial" font-size="14.00" fill="#17324d">evaluator._evaluate_workload</text>
<text xml:space="preserve" text-anchor="middle" x="732.62" y="-306.48" font-family="Arial" font-size="14.00" fill="#17324d">協調單一候選評估</text>
</g>
<!-- n_Mapping&#45;&gt;n_Eval -->
<g id="edge21" class="edge">
<title>n_Mapping&#45;&gt;n_Eval</title>
<path fill="none" stroke="#69859c" stroke-width="1.05" d="M143.82,-628.94C167.91,-596.3 208.22,-546.94 252.62,-514.8 367.53,-431.64 523.06,-377.03 625.53,-347.37"/>
<polygon fill="#69859c" stroke="#69859c" stroke-width="1.05" points="625.98,-349.86 632.21,-345.45 624.59,-345.01 625.98,-349.86"/>
</g>
<!-- n_Cfg -->
<g id="node6" class="node">
<title>n_Cfg</title>
<path fill="#f8fbff" stroke="#63809a" stroke-width="1.15" d="M864.78,-811.84C864.78,-811.84 644.47,-811.84 644.47,-811.84 638.47,-811.84 632.47,-805.84 632.47,-799.84 632.47,-799.84 632.47,-756.16 632.47,-756.16 632.47,-750.16 638.47,-744.16 644.47,-744.16 644.47,-744.16 864.78,-744.16 864.78,-744.16 870.78,-744.16 876.78,-750.16 876.78,-756.16 876.78,-756.16 876.78,-799.84 876.78,-799.84 876.78,-805.84 870.78,-811.84 864.78,-811.84"/>
<text xml:space="preserve" text-anchor="middle" x="754.62" y="-790.6" font-family="Arial" font-size="14.00" fill="#17324d">configs/defaults.json</text>
<text xml:space="preserve" text-anchor="middle" x="754.62" y="-773.8" font-family="Arial" font-size="14.00" fill="#17324d">PE、頻率、SRAM、link、power 與限</text>
<text xml:space="preserve" text-anchor="middle" x="754.62" y="-757" font-family="Arial" font-size="14.00" fill="#17324d">制</text>
</g>
<!-- n_Cfg&#45;&gt;n_Mapping -->
<g id="edge5" class="edge">
<title>n_Cfg&#45;&gt;n_Mapping</title>
<path fill="none" stroke="#69859c" stroke-width="1.05" d="M632.11,-760.64C529.92,-746.25 380.7,-723.53 251.62,-697.16 251.1,-697.05 250.58,-696.95 250.06,-696.84"/>
<polygon fill="#69859c" stroke="#69859c" stroke-width="1.05" points="250.64,-694.39 243.07,-695.37 249.6,-699.32 250.64,-694.39"/>
</g>
<!-- n_Cfg&#45;&gt;n_Topo -->
<g id="edge6" class="edge">
<title>n_Cfg&#45;&gt;n_Topo</title>
<path fill="none" stroke="#69859c" stroke-width="1.05" d="M712.2,-743.8C695.79,-730.96 676.91,-716.19 659.9,-702.88"/>
<polygon fill="#69859c" stroke="#69859c" stroke-width="1.05" points="661.72,-701.1 654.5,-698.65 658.61,-705.07 661.72,-701.1"/>
</g>
<!-- n_Cfg&#45;&gt;n_E2E -->
<g id="edge14" class="edge">
<title>n_Cfg&#45;&gt;n_E2E</title>
<path fill="none" stroke="#69859c" stroke-width="1.05" d="M757.47,-743.81C758.56,-711.99 755.75,-663.85 733.62,-629.48 722.89,-612.81 707.31,-598.94 690.76,-587.7"/>
<polygon fill="#69859c" stroke="#69859c" stroke-width="1.05" points="692.36,-585.74 684.95,-583.91 689.61,-589.96 692.36,-585.74"/>
</g>
<!-- n_Cfg&#45;&gt;n_RC -->
<g id="edge17" class="edge">
<title>n_Cfg&#45;&gt;n_RC</title>
<path fill="none" stroke="#69859c" stroke-width="1.05" d="M764.22,-743.94C776.76,-700.76 798.57,-625.6 811.08,-582.51"/>
<polygon fill="#69859c" stroke="#69859c" stroke-width="1.05" points="813.42,-583.48 813.01,-575.86 808.58,-582.08 813.42,-583.48"/>
</g>
<!-- n_Power -->
<g id="node15" class="node">
<title>n_Power</title>
<path fill="#f8fbff" stroke="#63809a" stroke-width="1.15" d="M990.05,-246.64C990.05,-246.64 817.19,-246.64 817.19,-246.64 811.19,-246.64 805.19,-240.64 805.19,-234.64 805.19,-234.64 805.19,-207.76 805.19,-207.76 805.19,-201.76 811.19,-195.76 817.19,-195.76 817.19,-195.76 990.05,-195.76 990.05,-195.76 996.05,-195.76 1002.05,-201.76 1002.05,-207.76 1002.05,-207.76 1002.05,-234.64 1002.05,-234.64 1002.05,-240.64 996.05,-246.64 990.05,-246.64"/>
<text xml:space="preserve" text-anchor="middle" x="903.62" y="-225.4" font-family="Arial" font-size="14.00" fill="#17324d">power.py</text>
<text xml:space="preserve" text-anchor="middle" x="903.62" y="-208.6" font-family="Arial" font-size="14.00" fill="#17324d">Batch&#45;1 能量 ÷ E2E 觀測時間</text>
</g>
<!-- n_Cfg&#45;&gt;n_Power -->
<g id="edge27" class="edge">
<title>n_Cfg&#45;&gt;n_Power</title>
<path fill="none" stroke="#69859c" stroke-width="1.05" d="M877.15,-767.48C923.88,-757.16 972.79,-736.79 1001.62,-697.16 1027.95,-660.98 943,-357.45 913.41,-255.47"/>
<polygon fill="#69859c" stroke="#69859c" stroke-width="1.05" points="915.84,-254.81 911.41,-248.6 911,-256.22 915.84,-254.81"/>
</g>
<!-- n_Topo&#45;&gt;n_Schedule -->
<g id="edge10" class="edge">
<title>n_Topo&#45;&gt;n_Schedule</title>
<path fill="none" stroke="#69859c" stroke-width="1.05" d="M539.89,-628.97C511.58,-615.63 478.87,-600.2 449.86,-586.53"/>
<polygon fill="#69859c" stroke="#69859c" stroke-width="1.05" points="451.2,-584.37 443.62,-583.58 449.06,-588.93 451.2,-584.37"/>
</g>
<!-- n_Topo&#45;&gt;n_E2E -->
<g id="edge13" class="edge">
<title>n_Topo&#45;&gt;n_E2E</title>
<path fill="none" stroke="#69859c" stroke-width="1.05" d="M610.03,-629.12C609.83,-617.42 609.59,-604.11 609.37,-591.77"/>
<polygon fill="#69859c" stroke="#69859c" stroke-width="1.05" points="611.89,-591.73 609.24,-584.58 606.85,-591.82 611.89,-591.73"/>
</g>
<!-- n_Topo&#45;&gt;n_RC -->
<g id="edge15" class="edge">
<title>n_Topo&#45;&gt;n_RC</title>
<path fill="none" stroke="#69859c" stroke-width="1.05" d="M723.6,-629.08C738.61,-622.62 753.37,-615.12 766.62,-606.48 777.28,-599.54 787.35,-590.09 795.84,-580.89"/>
<polygon fill="#69859c" stroke="#69859c" stroke-width="1.05" points="797.49,-582.84 800.4,-575.78 793.73,-579.48 797.49,-582.84"/>
</g>
<!-- n_Schedule&#45;&gt;n_Eval -->
<g id="edge22" class="edge">
<title>n_Schedule&#45;&gt;n_Eval</title>
<path fill="none" stroke="#69859c" stroke-width="1.05" d="M424.5,-514.31C494.98,-469.88 618.62,-391.95 685.86,-349.56"/>
<polygon fill="#69859c" stroke="#69859c" stroke-width="1.05" points="686.89,-351.89 691.63,-345.92 684.2,-347.63 686.89,-351.89"/>
</g>
<!-- n_E2E&#45;&gt;n_Eval -->
<g id="edge23" class="edge">
<title>n_E2E&#45;&gt;n_Eval</title>
<path fill="none" stroke="#69859c" stroke-width="1.05" d="M618.95,-514.24C629.79,-481.63 648.6,-431.25 672.62,-391.52 681.11,-377.49 692.27,-363.38 702.66,-351.45"/>
<polygon fill="#69859c" stroke="#69859c" stroke-width="1.05" points="704.38,-353.31 707.27,-346.25 700.61,-349.96 704.38,-353.31"/>
</g>
<!-- n_E2E&#45;&gt;n_Power -->
<g id="edge26" class="edge">
<title>n_E2E&#45;&gt;n_Power</title>
<path fill="none" stroke="#69859c" stroke-width="1.05" d="M716.81,-516.14C787.02,-494.29 870.79,-465.16 900.62,-442.4 964.37,-393.76 983.91,-343.47 952.62,-269.64 950.18,-263.87 946.65,-258.46 942.59,-253.5"/>
<polygon fill="#69859c" stroke="#69859c" stroke-width="1.05" points="944.52,-251.88 937.84,-248.22 940.78,-255.25 944.52,-251.88"/>
</g>
<!-- n_NetMetrics -->
<g id="node12" class="node">
<title>n_NetMetrics</title>
<path fill="#f8fbff" stroke="#63809a" stroke-width="1.15" d="M878.52,-442.4C878.52,-442.4 694.73,-442.4 694.73,-442.4 688.73,-442.4 682.73,-436.4 682.73,-430.4 682.73,-430.4 682.73,-403.52 682.73,-403.52 682.73,-397.52 688.73,-391.52 694.73,-391.52 694.73,-391.52 878.52,-391.52 878.52,-391.52 884.52,-391.52 890.52,-397.52 890.52,-403.52 890.52,-403.52 890.52,-430.4 890.52,-430.4 890.52,-436.4 884.52,-442.4 878.52,-442.4"/>
<text xml:space="preserve" text-anchor="middle" x="786.62" y="-421.16" font-family="Arial" font-size="14.00" fill="#17324d">network／throughput／area／</text>
<text xml:space="preserve" text-anchor="middle" x="786.62" y="-404.36" font-family="Arial" font-size="14.00" fill="#17324d">power metrics</text>
</g>
<!-- n_RC&#45;&gt;n_NetMetrics -->
<g id="edge19" class="edge">
<title>n_RC&#45;&gt;n_NetMetrics</title>
<path fill="none" stroke="#69859c" stroke-width="1.05" d="M814.07,-522.64C808.75,-502.36 801.21,-473.61 795.38,-451.37"/>
<polygon fill="#69859c" stroke="#69859c" stroke-width="1.05" points="797.83,-450.75 793.56,-444.42 792.95,-452.03 797.83,-450.75"/>
</g>
<!-- n_Proxy -->
<g id="node13" class="node">
<title>n_Proxy</title>
<path fill="#f8fbff" stroke="#63809a" stroke-width="1.15" d="M1117.94,-434.96C1117.94,-434.96 1021.31,-434.96 1021.31,-434.96 1015.31,-434.96 1009.31,-428.96 1009.31,-422.96 1009.31,-422.96 1009.31,-410.96 1009.31,-410.96 1009.31,-404.96 1015.31,-398.96 1021.31,-398.96 1021.31,-398.96 1117.94,-398.96 1117.94,-398.96 1123.94,-398.96 1129.94,-404.96 1129.94,-410.96 1129.94,-410.96 1129.94,-422.96 1129.94,-422.96 1129.94,-428.96 1123.94,-434.96 1117.94,-434.96"/>
<text xml:space="preserve" text-anchor="middle" x="1069.62" y="-412.76" font-family="Arial" font-size="14.00" fill="#17324d">rapid_proxy.py</text>
</g>
<!-- n_RC&#45;&gt;n_Proxy -->
<g id="edge20" class="edge">
<title>n_RC&#45;&gt;n_Proxy</title>
<path fill="none" stroke="#69859c" stroke-width="1.05" stroke-dasharray="5,2" d="M905.48,-529C934.99,-520.33 967.48,-508.22 994.62,-491.8 1016.37,-478.64 1036.63,-457.98 1050.6,-441.85"/>
<polygon fill="#69859c" stroke="#69859c" stroke-width="1.05" points="1052.43,-443.59 1055.16,-436.47 1048.58,-440.33 1052.43,-443.59"/>
<text xml:space="preserve" text-anchor="middle" x="1101.45" y="-481.9" font-family="Arial" font-size="11.00" fill="#385670">僅 backend=local 或 auto 的代理</text>
<text xml:space="preserve" text-anchor="middle" x="1101.45" y="-468.7" font-family="Arial" font-size="11.00" fill="#385670">路徑</text>
</g>
<!-- n_Runtime -->
<g id="node11" class="node">
<title>n_Runtime</title>
<path fill="#f8fbff" stroke="#63809a" stroke-width="1.15" d="M979.33,-688.76C979.33,-688.76 839.92,-688.76 839.92,-688.76 833.92,-688.76 827.92,-682.76 827.92,-676.76 827.92,-676.76 827.92,-649.88 827.92,-649.88 827.92,-643.88 833.92,-637.88 839.92,-637.88 839.92,-637.88 979.33,-637.88 979.33,-637.88 985.33,-637.88 991.33,-643.88 991.33,-649.88 991.33,-649.88 991.33,-676.76 991.33,-676.76 991.33,-682.76 985.33,-688.76 979.33,-688.76"/>
<text xml:space="preserve" text-anchor="middle" x="909.62" y="-667.52" font-family="Arial" font-size="14.00" fill="#17324d">.runtime/rapidchiplet</text>
<text xml:space="preserve" text-anchor="middle" x="909.62" y="-650.72" font-family="Arial" font-size="14.00" fill="#17324d">官方 RapidChiplet 核心</text>
</g>
<!-- n_Runtime&#45;&gt;n_RC -->
<g id="edge18" class="edge">
<title>n_Runtime&#45;&gt;n_RC</title>
<path fill="none" stroke="#69859c" stroke-width="1.05" d="M889.87,-637.31C876.85,-620.83 859.69,-599.1 845.7,-581.39"/>
<polygon fill="#69859c" stroke="#69859c" stroke-width="1.05" points="847.75,-579.91 841.31,-575.82 843.79,-583.04 847.75,-579.91"/>
</g>
<!-- n_NetMetrics&#45;&gt;n_Eval -->
<g id="edge24" class="edge">
<title>n_NetMetrics&#45;&gt;n_Eval</title>
<path fill="none" stroke="#69859c" stroke-width="1.05" d="M772.72,-391.27C766.09,-379.51 758.08,-365.28 750.96,-352.65"/>
<polygon fill="#69859c" stroke="#69859c" stroke-width="1.05" points="753.18,-351.44 747.45,-346.41 748.79,-353.92 753.18,-351.44"/>
</g>
<!-- n_Eval&#45;&gt;n_Power -->
<g id="edge25" class="edge">
<title>n_Eval&#45;&gt;n_Power</title>
<path fill="none" stroke="#69859c" stroke-width="1.05" d="M777.11,-293.14C799.88,-280.37 827.73,-264.75 851.5,-251.42"/>
<polygon fill="#69859c" stroke="#69859c" stroke-width="1.05" points="852.63,-253.68 857.68,-247.96 850.17,-249.28 852.63,-253.68"/>
</g>
<!-- n_Result -->
<g id="node16" class="node">
<title>n_Result</title>
<path fill="#f8fbff" stroke="#63809a" stroke-width="1.15" d="M894.2,-148.76C894.2,-148.76 673.05,-148.76 673.05,-148.76 667.05,-148.76 661.05,-142.76 661.05,-136.76 661.05,-136.76 661.05,-109.88 661.05,-109.88 661.05,-103.88 667.05,-97.88 673.05,-97.88 673.05,-97.88 894.2,-97.88 894.2,-97.88 900.2,-97.88 906.2,-103.88 906.2,-109.88 906.2,-109.88 906.2,-136.76 906.2,-136.76 906.2,-142.76 900.2,-148.76 894.2,-148.76"/>
<text xml:space="preserve" text-anchor="middle" x="783.62" y="-127.52" font-family="Arial" font-size="14.00" fill="#17324d">EvaluationResult</text>
<text xml:space="preserve" text-anchor="middle" x="783.62" y="-110.72" font-family="Arial" font-size="14.00" fill="#17324d">PPA、schedule、graph 與 mapping</text>
</g>
<!-- n_Eval&#45;&gt;n_Result -->
<g id="edge29" class="edge">
<title>n_Eval&#45;&gt;n_Result</title>
<path fill="none" stroke="#69859c" stroke-width="1.05" d="M739.19,-293.15C748.29,-258.56 764.77,-195.94 774.9,-157.45"/>
<polygon fill="#69859c" stroke="#69859c" stroke-width="1.05" points="777.29,-158.3 776.68,-150.7 772.41,-157.02 777.29,-158.3"/>
</g>
<!-- n_Power&#45;&gt;n_Result -->
<g id="edge28" class="edge">
<title>n_Power&#45;&gt;n_Result</title>
<path fill="none" stroke="#69859c" stroke-width="1.05" d="M872.41,-195.26C856.85,-182.83 837.91,-167.7 821.53,-154.61"/>
<polygon fill="#69859c" stroke="#69859c" stroke-width="1.05" points="823.12,-152.65 815.92,-150.13 819.98,-156.59 823.12,-152.65"/>
</g>
<!-- n_Reward -->
<g id="node17" class="node">
<title>n_Reward</title>
<path fill="#f8fbff" stroke="#63809a" stroke-width="1.15" d="M999.74,-50.88C999.74,-50.88 817.51,-50.88 817.51,-50.88 811.51,-50.88 805.51,-44.88 805.51,-38.88 805.51,-38.88 805.51,-12 805.51,-12 805.51,-6 811.51,0 817.51,0 817.51,0 999.74,0 999.74,0 1005.74,0 1011.74,-6 1011.74,-12 1011.74,-12 1011.74,-38.88 1011.74,-38.88 1011.74,-44.88 1005.74,-50.88 999.74,-50.88"/>
<text xml:space="preserve" text-anchor="middle" x="908.62" y="-29.64" font-family="Arial" font-size="14.00" fill="#17324d">preference_dse.score_result</text>
<text xml:space="preserve" text-anchor="middle" x="908.62" y="-12.84" font-family="Arial" font-size="14.00" fill="#17324d">strict eligibility 與 reward</text>
</g>
<!-- n_Result&#45;&gt;n_Reward -->
<g id="edge30" class="edge">
<title>n_Result&#45;&gt;n_Reward</title>
<path fill="none" stroke="#69859c" stroke-width="1.05" d="M816.14,-97.38C832.49,-84.84 852.42,-69.55 869.59,-56.38"/>
<polygon fill="#69859c" stroke="#69859c" stroke-width="1.05" points="870.83,-58.61 875.01,-52.22 867.76,-54.61 870.83,-58.61"/>
</g>
<!-- n_Profile -->
<g id="node18" class="node">
<title>n_Profile</title>
<path fill="#f8fbff" stroke="#63809a" stroke-width="1.15" d="M1128.99,-148.76C1128.99,-148.76 938.26,-148.76 938.26,-148.76 932.26,-148.76 926.26,-142.76 926.26,-136.76 926.26,-136.76 926.26,-109.88 926.26,-109.88 926.26,-103.88 932.26,-97.88 938.26,-97.88 938.26,-97.88 1128.99,-97.88 1128.99,-97.88 1134.99,-97.88 1140.99,-103.88 1140.99,-109.88 1140.99,-109.88 1140.99,-136.76 1140.99,-136.76 1140.99,-142.76 1134.99,-148.76 1128.99,-148.76"/>
<text xml:space="preserve" text-anchor="middle" x="1033.62" y="-127.52" font-family="Arial" font-size="14.00" fill="#17324d">PreferenceProfile</text>
<text xml:space="preserve" text-anchor="middle" x="1033.62" y="-110.72" font-family="Arial" font-size="14.00" fill="#17324d">偏好權重、PPA 上限與 strict 設定</text>
</g>
<!-- n_Profile&#45;&gt;n_Reward -->
<g id="edge31" class="edge">
<title>n_Profile&#45;&gt;n_Reward</title>
<path fill="none" stroke="#69859c" stroke-width="1.05" d="M1001.11,-97.38C984.76,-84.84 964.82,-69.55 947.65,-56.38"/>
<polygon fill="#69859c" stroke="#69859c" stroke-width="1.05" points="949.48,-54.61 942.24,-52.22 946.42,-58.61 949.48,-54.61"/>
</g>
</g>
</svg>
